Coordinates
version=1
nRows=12
nColumns=28
inDegrees=yes

Units are S.I. units (second, meters, Newtons, ...)
Angles are in degrees.

endheader
time	pelvis_tilt	pelvis_list	pelvis_rotation	pelvis_tx	pelvis_ty	pelvis_tz	hip_flexion_r	hip_adduction_r	hip_rotation_r	knee_angle_r	ankle_angle_r	subtalar_angle_r	mtp_angle_r	hip_flexion_l	hip_adduction_l	hip_rotation_l	knee_angle_l	socket_flexion	socket_adduction	socket_rotation	socket_tx	socket_ty	socket_tz	foot_flex	lumbar_extension	lumbar_bending	lumbar_rotation
      0.81250000	     -0.93834354	     -6.16091803	      8.36636623	      0.40858665	      0.98357402	      0.27270787	      9.16376094	     11.33892339	      1.52658095	    -20.58252502	      0.74417902	    -26.95472348	     -0.58905266	     23.48402989	     -8.64449776	     -3.43074637	    -65.64885207	      3.71589311	     -8.63395199	    -10.83205952	      0.00000000	      0.00738319	      0.00000000	     -1.26759474	     -6.51251508	      5.30288294	     -8.90340466
      0.81666667	     -1.01394509	     -5.93778670	      8.32571841	      0.41405662	      0.98471450	      0.27240328	      8.56632799	     11.09416548	      1.60683604	    -20.08045178	      0.69849479	    -26.83034406	     -0.54769111	     24.28295913	     -8.18761303	     -3.31498677	    -65.56353528	      3.64069202	     -8.61014973	    -10.16709270	      0.00000000	      0.00794073	      0.00000000	     -1.28717447	     -6.50337690	      5.08162017	     -8.76188629
      0.82083333	     -1.08095888	     -5.71296624	      8.31670283	      0.41958457	      0.98584280	      0.27210854	      7.93879498	     10.85689535	      1.67410502	    -19.54075117	      0.63094538	    -26.69092797	     -0.50133182	     25.08250513	     -7.73376422	     -3.22810816	    -65.45699988	      3.54727462	     -8.62394111	     -9.56117525	      0.00000000	      0.00871465	      0.00000000	     -1.30984083	     -6.47407967	      4.83604172	     -8.60910181
      0.82500000	     -1.10449933	     -5.49248815	      8.31561913	      0.42537697	      0.98702169	      0.27176364	      7.22200199	     10.59868069	      1.59956598	    -18.92646057	      0.41534247	    -26.49335157	     -0.39410216	     25.78029479	     -7.33183279	     -3.27130523	    -65.31203488	      3.36762580	     -8.72603736	     -8.95886598	      0.00000000	      0.00951375	      0.00000000	     -1.32079339	     -6.39003197	      4.59426996	     -8.42800177
      0.82916667	     -1.15282373	     -5.29557696	      8.25832788	      0.43067616	      0.98806990	      0.27153798	      6.65299814	     10.40642919	      1.74092237	    -18.50113101	      0.39974479	    -26.38642380	     -0.33050708	     26.53763903	     -6.90792319	     -3.13842623	    -65.13498479	      3.23647956	     -8.67476041	     -8.50987028	      0.00000000	      0.01026477	      0.00000000	     -1.35410955	     -6.46699207	      4.40904890	     -8.30883275
      0.83333333	     -1.15405080	     -5.07001797	      8.25176363	      0.43645712	      0.98921123	      0.27118920	      5.91653445	     10.15302015	      1.71210065	    -17.89009615	      0.16601276	    -26.21566835	     -0.16917472	     27.12827544	     -6.48556935	     -3.11445535	    -64.84715571	      3.03034637	     -8.71365038	     -8.07112959	      0.00000000	      0.01086288	      0.00000000	     -1.36753489	     -6.45470324	      4.17506079	     -8.12593004
      0.83750000	     -1.19305546	     -4.96816486	      8.02139619	      0.44173537	      0.99003820	      0.27119305	      5.50486953	     10.04366432	      1.73967488	    -17.74721154	      0.18490190	    -26.18318858	     -0.14666184	     27.74112674	     -6.23180038	     -3.00054138	    -64.55834134	      2.78123100	     -8.53724329	     -7.83817565	      0.00000000	      0.01098736	      0.00000000	     -1.34860622	     -6.57035870	      4.15026560	     -8.08283139
      0.84166667	     -1.27335530	     -4.69441852	      8.16244424	      0.44734755	      0.99106709	      0.27064353	      4.77039153	      9.76577724	      1.94502530	    -16.98469045	      0.09286570	    -26.01704290	     -0.06967128	     28.53306929	     -5.64761516	     -2.85068315	    -64.30466529	      2.57967390	     -8.62034398	     -7.55534030	      0.00000000	      0.01244189	      0.00000000	     -1.38705064	     -6.44947762	      3.78371741	     -7.87793142
      0.84583333	     -1.03820508	     -4.36820736	      8.16084823	      0.45320838	      0.99258851	      0.27020567	      3.73773248	      9.43200432	      1.91842522	    -16.31135901	     -0.33006818	    -26.01622126	      0.43474210	     28.58801762	     -5.10138280	     -2.67613183	    -63.49192433	      2.51131357	     -8.50791526	     -7.42992536	      0.00000000	      0.01228674	      0.00000000	     -1.38673283	     -6.74961227	      3.51118564	     -7.69149237
      0.85000000	     -1.12430595	     -4.20778041	      8.08950632	      0.45854236	      0.99333696	      0.26998853	      3.24572750	      9.26709413	      2.05332864	    -15.92762365	     -0.35365838	    -25.92269526	      0.48663728	     29.29194421	     -4.72434118	     -2.55488302	    -63.15969045	      2.21477973	     -8.45456823	     -7.32809866	      0.00000000	      0.01315844	      0.00000000	     -1.40517415	     -6.75319499	      3.36520272	     -7.59574430
      0.85416667	     -1.19087513	     -4.14220793	      7.91490434	      0.46394316	      0.99395827	      0.26998143	      2.87840745	      9.19340103	      2.05432716	    -15.80286608	     -0.36464075	    -25.88613208	      0.49989180	     29.86102887	     -4.52986408	     -2.45425514	    -62.74349081	      1.82181989	     -8.31955599	     -7.25497507	      0.00000000	      0.01336858	      0.00000000	     -1.35725195	     -6.83556345	      3.32595680	     -7.55308427
      0.85833333	     -1.13638588	     -3.76049821	      8.01074491	      0.46983497	      0.99518179	      0.26928858	      1.92887088	      8.78777387	      2.16655537	    -14.92563631	     -0.81489197	    -25.91241188	      0.82475184	     30.08668980	     -3.76507177	     -2.02017151	    -61.78823130	      1.78829567	     -8.10931443	     -7.48242046	      0.00000000	      0.01365560	      0.00000000	     -1.38945561	     -6.78020897	      2.96693287	     -7.31222701
